<svg width="20" height="8" viewBox="0 0 20 8" fill="none" xmlns="http://www.w3.org/2000/svg">
<path d="M1.50026 0.320047C1.22412 -0.0334151 0.701795 -0.10505 0.333611 0.160047C-0.034573 0.425144 -0.109191 0.926585 0.166947 1.28005C0.479657 1.68032 0.883832 2.12179 1.38408 2.56506L0.140071 4.35625C-0.115241 4.72385 -0.0117937 5.22056 0.371126 5.46566C0.754045 5.71076 1.27143 5.61145 1.52675 5.24384L2.69453 3.56241C3.30033 3.95737 3.99286 4.32779 4.77589 4.64164L4.19894 6.58038C4.07251 7.00521 4.32876 7.448 4.77128 7.56937C5.21381 7.69074 5.67503 7.44474 5.80146 7.0199L6.35578 5.15722C7.20807 5.37586 8.14401 5.52546 9.1668 5.57862V7.2C9.1668 7.64183 9.53989 8 10.0001 8C10.4603 8 10.8334 7.64183 10.8334 7.2V5.57862C11.8624 5.52514 12.8035 5.37405 13.66 5.15323L14.1434 7.00689C14.2551 7.43549 14.7077 7.69595 15.1541 7.58864C15.6006 7.48134 15.8719 7.0469 15.7601 6.6183L15.2427 4.63427C16.0182 4.32201 16.7046 3.95432 17.3056 3.56246L18.473 5.2438C18.7283 5.61144 19.2457 5.7108 19.6286 5.46574C20.0116 5.22068 20.1151 4.72399 19.8598 4.35635L18.6161 2.56512C19.1164 2.12183 19.5206 1.68034 19.8333 1.28005C20.1094 0.926585 20.0348 0.425144 19.6666 0.160047C19.2984 -0.10505 18.7761 -0.0334151 18.5 0.320047C17.3767 1.75791 14.6928 3.99722 10.009 4.00004L10.0001 4L9.99126 4.00004C5.30739 3.99722 2.62357 1.75791 1.50026 0.320047Z" fill="#0E0E0E"/>
</svg>
