<svg width="18" height="19" viewBox="0 0 18 19" fill="none" xmlns="http://www.w3.org/2000/svg">
<path d="M15.1875 2.26221C16.1016 2.26221 16.875 3.03564 16.875 3.94971V16.3247C16.875 17.2739 16.1016 18.0122 15.1875 18.0122H10.3359V12.6685H12.375L12.7617 10.1372H10.3359V8.52002C10.3359 7.81689 10.6875 7.14893 11.7773 7.14893H12.8672V5.00439C12.8672 5.00439 11.8828 4.82861 10.8984 4.82861C8.92969 4.82861 7.62891 6.05908 7.62891 8.23877V10.1372H5.41406V12.6685H7.62891V18.0122H2.8125C1.86328 18.0122 1.125 17.2739 1.125 16.3247V3.94971C1.125 3.03564 1.86328 2.26221 2.8125 2.26221H15.1875Z" fill="#454545"/>
</svg>
