<svg width="79" height="23" viewBox="0 0 79 23" fill="none" xmlns="http://www.w3.org/2000/svg">
<path d="M0.0400001 22V0.999999H7.96C11.22 0.999999 13.82 2.01 15.76 4.03C17.7 6.05 18.67 8.54 18.67 11.5C18.67 14.46 17.7 16.95 15.76 18.97C13.84 20.99 11.24 22 7.96 22H0.0400001ZM4.9 17.92H7.51C9.47 17.92 10.98 17.3 12.04 16.06C13.12 14.8 13.66 13.28 13.66 11.5C13.66 9.72 13.12 8.21 12.04 6.97C10.98 5.71 9.47 5.08 7.51 5.08H4.9V17.92ZM40.2232 19.39C38.1832 21.53 35.4632 22.6 32.0632 22.6C28.6632 22.6 25.9432 21.53 23.9032 19.39C21.8632 17.23 20.8432 14.6 20.8432 11.5C20.8432 8.4 21.8632 5.78 23.9032 3.64C25.9432 1.48 28.6632 0.399999 32.0632 0.399999C35.4632 0.399999 38.1832 1.48 40.2232 3.64C42.2632 5.78 43.2832 8.4 43.2832 11.5C43.2832 14.6 42.2632 17.23 40.2232 19.39ZM32.0632 18.25C33.9832 18.25 35.4832 17.61 36.5632 16.33C37.6632 15.03 38.2132 13.42 38.2132 11.5C38.2132 9.58 37.6632 7.98 36.5632 6.7C35.4832 5.4 33.9832 4.75 32.0632 4.75C30.1232 4.75 28.6032 5.4 27.5032 6.7C26.4232 7.98 25.8932 9.58 25.9132 11.5C25.8932 13.42 26.4232 15.03 27.5032 16.33C28.6032 17.61 30.1232 18.25 32.0632 18.25ZM55.5366 0.999999C57.7166 0.999999 59.5166 1.72 60.9366 3.16C62.3566 4.58 63.0666 6.39 63.0666 8.59C63.0666 10.79 62.3566 12.61 60.9366 14.05C59.5166 15.47 57.7166 16.18 55.5366 16.18H51.4566V22H46.5966V0.999999H55.5366ZM54.7866 12.22C55.7666 12.22 56.5666 11.88 57.1866 11.2C57.8266 10.52 58.1466 9.65 58.1466 8.59C58.1466 7.53 57.8266 6.66 57.1866 5.98C56.5666 5.3 55.7666 4.96 54.7866 4.96H51.4566V12.22H54.7866ZM65.8466 22V0.999999H78.6866V4.9H70.7066V9.67H78.6866V13.48H70.7066V18.1H78.6866V22H65.8466Z" fill="#16CEAA"/>
</svg>
