<svg width="24" height="24" viewBox="0 0 24 24" fill="none" xmlns="http://www.w3.org/2000/svg">
<path d="M15.02 3.01001C14.18 2.37001 13.14 2 12 2C9.24 2 7 4.24 7 7C7 9.76 9.24 12 12 12C14.76 12 17 9.76 17 7" stroke="#1A1717" stroke-width="1.5" stroke-linecap="round" stroke-linejoin="round"/>
<path d="M19.2101 15.741L15.67 19.281C15.53 19.421 15.4 19.681 15.37 19.871L15.18 21.221C15.11 21.711 15.45 22.051 15.94 21.981L17.29 21.791C17.48 21.761 17.75 21.631 17.88 21.491L21.42 17.951C22.03 17.341 22.32 16.631 21.42 15.731C20.53 14.841 19.8201 15.131 19.2101 15.741Z" stroke="#1A1717" stroke-width="1.5" stroke-miterlimit="10" stroke-linecap="round" stroke-linejoin="round"/>
<path d="M18.7002 16.25C19.0002 17.33 19.8402 18.17 20.9202 18.47" stroke="#1A1717" stroke-width="1.5" stroke-miterlimit="10" stroke-linecap="round" stroke-linejoin="round"/>
<path d="M3.41016 22C3.41016 18.13 7.26018 15 12.0002 15C13.0402 15 14.0402 15.15 14.9702 15.43" stroke="#1A1717" stroke-width="1.5" stroke-linecap="round" stroke-linejoin="round"/>
</svg>
