   <svg xmlns="http://www.w3.org/2000/svg" viewBox="0 0 18 18" fill="none">
              <path d="M14.5064 10.8675L13.7564 9.6225C13.5989 9.345 13.4564 8.82 13.4564 8.5125V6.615C13.4564 4.8525 12.4214 3.33 10.9289 2.6175C10.5389 1.9275 9.81892 1.5 8.99392 1.5C8.17642 1.5 7.44142 1.9425 7.05142 2.64C5.58892 3.3675 4.57642 4.875 4.57642 6.615V8.5125C4.57642 8.82 4.43392 9.345 4.27642 9.615L3.51892 10.8675C3.21892 11.37 3.15142 11.925 3.33892 12.435C3.51892 12.9375 3.94642 13.3275 4.50142 13.515C5.95642 14.01 7.48642 14.25 9.01642 14.25C10.5464 14.25 12.0764 14.01 13.5314 13.5225C14.0564 13.35 14.4614 12.9525 14.6564 12.435C14.8514 11.9175 14.7989 11.3475 14.5064 10.8675Z" fill="#223150" />
              <path d="M11.1242 15.0075C10.8092 15.8775 9.97672 16.5 9.00172 16.5C8.40922 16.5 7.82422 16.26 7.41172 15.8325C7.17172 15.6075 6.99172 15.3075 6.88672 15C6.98422 15.015 7.08172 15.0225 7.18672 15.0375C7.35922 15.06 7.53922 15.0825 7.71922 15.0975C8.14672 15.135 8.58172 15.1575 9.01672 15.1575C9.44422 15.1575 9.87172 15.135 10.2917 15.0975C10.4492 15.0825 10.6067 15.075 10.7567 15.0525C10.8767 15.0375 10.9967 15.0225 11.1242 15.0075Z" fill="#223150" />
            </svg>